<?xml version="1.0" encoding="utf-8"?>
<!-- Svg Vector Icons : http://www.sfont.cn -->
<!DOCTYPE svg PUBLIC "-//W3C//DTD SVG 1.1//EN" "http://www.w3.org/Graphics/SVG/1.1/DTD/svg11.dtd">
<svg height="512" width="512" version="1.1" xmlns="http://www.w3.org/2000/svg" xmlns:xlink="http://www.w3.org/1999/xlink" x="0px" y="0px" viewBox="0 0 1000 1000" enable-background="new 0 0 1000 1000" xml:space="preserve">
<metadata> Svg Vector Icons : http://www.sfont.cn </metadata>
<g><g transform="translate(0.000000,511.000000) scale(0.100000,-0.100000)"><path d="M4118.2,4952.1C3444,4830.6,2620.9,4473.9,2076,4066.2C1072.6,3313.7,367,2176.9,155.4,961.8C80.9,515,80.9-276.8,159.3-727.6c258.7-1497.3,1230.8-2818.3,2591-3519.9c1646.3-850.6,3668.8-689.9,5154.4,411.6C10088-2217.1,10550.5,856,8939.5,3031.4c-744.8,1011.3-1873.6,1709-3100.5,1920.7C5400,5030.5,4541.5,5026.6,4118.2,4952.1z M5513.6,2933.4c458.6-98,889.8-423.3,1050.5-791.8c39.2-90.2,94.1-278.3,117.6-419.4c117.6-650.7-137.2-1223-823.1-1850.1c-337.1-305.7-470.4-517.4-470.4-744.8c0-266.5,3.9-266.5-517.4-266.5h-466.4l23.5,227.3c62.7,533.1,105.8,607.6,705.5,1203.4c493.9,486,623.3,725.2,623.3,1121c-3.9,341-121.5,560.5-368.5,693.8c-243,129.4-666.3,109.8-893.7-43.1c-164.6-105.8-282.2-309.7-282.2-474.3v-105.8l-458.6,11.8l-462.5,11.7l11.8,215.6c31.4,560.5,446.9,1023.1,1077.9,1195.5C4631.7,2984.4,5231.4,2992.2,5513.6,2933.4z M5388.2-2295.5v-450.8h-490h-490v450.8v450.8h490h490V-2295.5z"/></g></g>
</svg>